<svg id="Capa_1" enable-background="new 0 0 511.875 511.875" height="512" viewBox="0 0 511.875 511.875" width="512" xmlns="http://www.w3.org/2000/svg"><path d="m446.407 370.4c0-11.066-9.003-20.07-20.069-20.07-23.99-19.733-47.96-43.725-47.96-77.23v-22.71c0-4.142-3.357-7.5-7.5-7.5s-7.5 3.358-7.5 7.5v22.71c0 31.98 17.815 56.912 40.81 77.23h-197.34c-4.142 0-7.5 3.358-7.5 7.5s3.358 7.5 7.5 7.5h219.49c2.795 0 5.069 2.274 5.069 5.07v38.16c0 2.795-2.274 5.07-5.069 5.07h-340.8c-2.796 0-5.07-2.274-5.07-5.07v-38.16c0-2.795 2.274-5.07 5.07-5.07h88.63c4.142 0 7.5-3.358 7.5-7.5s-3.358-7.5-7.5-7.5h-66.479c23.463-20.531 40.81-44.678 40.81-77.23v-77.55c0-58.553 49.304-107.3 107.44-107.3 58.204 0 107.44 48.892 107.44 107.3v22.15c0 4.142 3.357 7.5 7.5 7.5s7.5-3.358 7.5-7.5v-22.15c0-48.189-27.992-89.958-68.568-109.922 3.863-8.022 5.877-16.826 5.877-25.878 0-32.946-26.804-59.75-59.75-59.75s-59.75 26.804-59.75 59.75c0 9.026 2.002 17.806 5.843 25.81-41.532 20.392-68.533 63.769-68.533 109.99v77.55c0 34.277-24.075 56.96-47.96 77.23-11.067 0-20.07 9.003-20.07 20.07v38.16c0 5.258 2.049 10.036 5.37 13.618-12.185 14.751-1.977 38.892 18.11 38.892h107.87c3.695 28.618 28.202 50.805 57.81 50.805 29.607 0 54.114-22.187 57.809-50.805h27.581c4.143 0 7.5-3.358 7.5-7.5s-3.357-7.5-7.5-7.5h-251.07c-10.739 0-11.188-17.44 0-17.44h333.98c10.742 0 11.183 17.44 0 17.44h-50.221c-4.143 0-7.5 3.358-7.5 7.5s3.357 7.5 7.5 7.5h50.221c20.086 0 30.295-24.141 18.11-38.892 3.321-3.582 5.37-8.36 5.37-13.618v-38.16zm-203.969-310.65c0-7.444 6.056-13.5 13.5-13.5s13.5 6.056 13.5 13.5c0 8.995-6.25 14.75-15.14 13.39-6.644-1.016-11.86-6.502-11.86-13.39zm-31.25 0c0-24.675 20.075-44.75 44.75-44.75s44.75 20.075 44.75 44.75c0 7.051-1.635 13.894-4.752 20.085-5.256-1.822-10.673-3.294-16.225-4.391 2.984-4.504 4.727-9.899 4.727-15.694 0-15.715-12.785-28.5-28.5-28.5s-28.5 12.785-28.5 28.5c0 5.784 1.737 11.169 4.71 15.668-5.526 1.082-10.946 2.546-16.232 4.368-3.102-6.179-4.728-13.005-4.728-20.036zm43.44 437.125c-21.324 0-39.096-15.487-42.659-35.805h85.316c-3.562 20.318-21.335 35.805-42.657 35.805z"/><g><g><path d="m78.829 161.896c-3.313 0-6.343-2.211-7.24-5.563-5.293-19.785-2.565-40.447 7.682-58.181 10.191-17.638 26.631-30.292 46.29-35.632 3.997-1.085 8.118 1.274 9.204 5.272 1.086 3.997-1.274 8.118-5.272 9.204-15.813 4.295-29.036 14.474-37.234 28.661-8.243 14.265-10.437 30.885-6.179 46.799-.36 6.224-2.777 9.371-7.251 9.44z"/></g><g><path d="m110.067 151.488c-3.473 0-6.589-2.425-7.332-5.958-2.227-10.589-.469-21.584 4.949-30.96s14.067-16.39 24.353-19.748c3.939-1.285 8.172.865 9.458 4.802 1.285 3.938-.865 8.172-4.802 9.458-6.766 2.208-12.456 6.823-16.021 12.993s-4.722 13.403-3.257 20.368c-.633 5.99-3.082 9.005-7.348 9.045z"/></g><g><path d="m433.046 161.896c-4.474-.069-6.89-3.215-7.25-9.44 4.258-15.915 2.063-32.535-6.18-46.799-8.197-14.188-21.421-24.366-37.233-28.661-3.997-1.086-6.357-5.207-5.271-9.204 1.085-3.999 5.211-6.356 9.203-5.272 19.659 5.34 36.098 17.994 46.29 35.632 10.246 17.733 12.975 38.395 7.682 58.181-.897 3.352-3.928 5.563-7.241 5.563z"/></g><g><path d="m401.809 151.488c-4.266-.04-6.715-3.055-7.348-9.044 1.465-6.966.309-14.199-3.257-20.369-3.565-6.17-9.255-10.784-16.021-12.993-3.938-1.286-6.088-5.52-4.803-9.458 1.285-3.936 5.519-6.089 9.457-4.802 10.286 3.358 18.936 10.371 24.354 19.747s7.175 20.371 4.949 30.96c-.742 3.534-3.859 5.959-7.331 5.959z"/></g></g></svg>