<svg height="512" viewBox="0 0 64 64" width="512" xmlns="http://www.w3.org/2000/svg"><g id="supplier"><circle cx="47" cy="17" fill="#ffd422" r="14"/><path d="m61 17a14 14 0 0 1 -25.61 7.83 14 14 0 0 0 17.22-20.65 13.991 13.991 0 0 1 8.39 12.82z" fill="#ebbf00"/><g fill="#c6c5ca"><path d="m57 17h4a13.854 13.854 0 0 1 -1.88 7l-3.46-2a9.966 9.966 0 0 0 1.34-5z"/><path d="m59.12 10-3.46 2a10.19 10.19 0 0 0 -3.66-3.66l2-3.46a13.821 13.821 0 0 1 5.12 5.12z"/><path d="m52 25.66 2 3.46a13.854 13.854 0 0 1 -7 1.88v-4a9.966 9.966 0 0 0 5-1.34z"/><path d="m47 3v4a9.966 9.966 0 0 0 -5 1.34l-2-3.46a13.854 13.854 0 0 1 7-1.88z"/><path d="m42 25.66-2 3.46a13.821 13.821 0 0 1 -5.12-5.12l3.46-2a10.19 10.19 0 0 0 3.66 3.66z"/><path d="m34.88 10 3.46 2a9.966 9.966 0 0 0 -1.34 5h-4a13.854 13.854 0 0 1 1.88-7z"/></g><path d="m54 29.12-17 17.88v-6l9.15-10.03c.28.02.56.03.85.03a13.854 13.854 0 0 0 7-1.88z" fill="#57565c"/><path d="m32.44 47.76a13.086 13.086 0 0 1 -.98 2.38l2.68 3.76-4.24 4.24-3.76-2.68a13.086 13.086 0 0 1 -2.38.98l-.76 4.56h-6l-.76-4.56a13.086 13.086 0 0 1 -2.38-.98l-3.76 2.68-4.24-4.24 2.68-3.76a13.086 13.086 0 0 1 -.98-2.38l-4.56-.76v-6l4.56-.76a13.086 13.086 0 0 1 .98-2.38l-2.68-3.76 4.24-4.24 3.76 2.68a13.086 13.086 0 0 1 2.38-.98l.76-4.56h6l.76 4.56a13.086 13.086 0 0 1 2.38.98l3.76-2.68 4.24 4.24-2.68 3.76a13.086 13.086 0 0 1 .98 2.38l4.56.76v6z" fill="#c0ab91"/><path d="m32.44 47.76a13.086 13.086 0 0 1 -.98 2.38l2.68 3.76-4.24 4.24-3.76-2.68a13.086 13.086 0 0 1 -2.38.98l-.76 4.56h-6l-.76-4.56a13.086 13.086 0 0 1 -2.38-.98l-3.76 2.68-2.77-2.77a30.862 30.862 0 0 0 14.67-7.37 31.042 31.042 0 0 0 9.41-16.63l2.73 2.73-2.68 3.76a13.086 13.086 0 0 1 .98 2.38l4.56.76v6z" fill="#a78966"/><path d="m17 27 17.88-17a13.854 13.854 0 0 0 -1.88 7c0 .29.01.57.03.85l-10.03 9.15z" fill="#57565c"/><circle cx="20" cy="44" fill="#ffd422" r="8"/><path d="m28 44a8 8 0 0 1 -15.29 3.29 7.867 7.867 0 0 0 3.29.71 8 8 0 0 0 8-8 7.867 7.867 0 0 0 -.71-3.29 7.981 7.981 0 0 1 4.71 7.29z" fill="#ebbf00"/><path d="m20 35a9 9 0 1 0 9 9 9.01 9.01 0 0 0 -9-9zm0 16a7 7 0 1 1 7-7 7.008 7.008 0 0 1 -7 7z"/><path d="m46 24h2v-2a2 2 0 0 0 2-2v-2a2 2 0 0 0 -2-2h-2v-2h4v-2h-2v-2h-2v2a2 2 0 0 0 -2 2v2a2 2 0 0 0 2 2h2v2h-4v2h2z"/><path d="m47 2a14.993 14.993 0 0 0 -12.87 7.33l-17.81 16.95a.977.977 0 0 0 -.31.56l-.66 3.95a13.338 13.338 0 0 0 -1.4.59l-3.27-2.34a1 1 0 0 0 -1.29.11l-4.24 4.24a1 1 0 0 0 -.11 1.29l2.34 3.27a13.338 13.338 0 0 0 -.59 1.4l-3.95.66a1 1 0 0 0 -.84.99v6a1 1 0 0 0 .84.99l3.95.66a13.338 13.338 0 0 0 .59 1.4l-2.34 3.27a1 1 0 0 0 .11 1.29l4.24 4.24a1 1 0 0 0 1.29.11l3.27-2.34a13.338 13.338 0 0 0 1.4.59l.66 3.95a1 1 0 0 0 .99.84h6a1 1 0 0 0 .99-.84l.66-3.95q.735-.27 1.44-.6c.63.49 1.64 1.21 3.23 2.35a1 1 0 0 0 1.29-.11l4.24-4.24a1 1 0 0 0 .11-1.29l-2.34-3.27a13.338 13.338 0 0 0 .59-1.4l3.95-.66a.977.977 0 0 0 .56-.31l16.95-17.81a14.987 14.987 0 0 0 -7.67-27.87zm12.95 14h-2a11.089 11.089 0 0 0 -.97-3.6l1.73-1.01a13.022 13.022 0 0 1 1.24 4.61zm-5.61-9.72a13.244 13.244 0 0 1 3.38 3.38l-1.74 1a11.406 11.406 0 0 0 -2.64-2.64zm-6.34-2.23a13.022 13.022 0 0 1 4.61 1.24l-1.01 1.73a11.089 11.089 0 0 0 -3.6-.97zm8 12.95a9 9 0 1 1 -9-9 9.014 9.014 0 0 1 9 9zm-10 10.95v2a13.022 13.022 0 0 1 -4.61-1.24l1.01-1.73a11.089 11.089 0 0 0 3.6.97zm-5.34-1.97-1 1.74a13.244 13.244 0 0 1 -3.38-3.38l1.74-1a11.406 11.406 0 0 0 2.64 2.64zm5.34-21.93v2a11.089 11.089 0 0 0 -3.6.97l-1.01-1.73a13.022 13.022 0 0 1 4.61-1.24zm-6.34 2.23 1 1.74a11.406 11.406 0 0 0 -2.64 2.64l-1.74-1a13.244 13.244 0 0 1 3.38-3.38zm-4.37 5.11 1.73 1a11.216 11.216 0 0 0 -.97 3.61h-2a13.022 13.022 0 0 1 1.24-4.61zm.76 6.61a11.089 11.089 0 0 0 .97 3.6l-1.73 1.01a13.022 13.022 0 0 1 -1.24-4.61zm-3.69-4.22a14.848 14.848 0 0 0 -.36 3.22c0 .14.02.28.02.42l-9.41 8.58h-3.11zm3.64 32.37-3.72.62a1 1 0 0 0 -.79.7 12.564 12.564 0 0 1 -.91 2.2 1 1 0 0 0 .06 1.05l2.2 3.07-3.05 3.05c-1.05-.76-2.95-2.11-3.06-2.19a.972.972 0 0 0 -1.06-.07 12.89 12.89 0 0 1 -2.2.91 1.012 1.012 0 0 0 -.7.79l-.62 3.72h-4.3l-.62-3.72a1.012 1.012 0 0 0 -.7-.79 12.89 12.89 0 0 1 -2.2-.91 1 1 0 0 0 -1.05.06l-3.07 2.2-3.05-3.05 2.2-3.07a1 1 0 0 0 .06-1.05 12.564 12.564 0 0 1 -.91-2.2 1 1 0 0 0 -.79-.7l-3.72-.62v-4.3l3.72-.62a1 1 0 0 0 .79-.7 13.233 13.233 0 0 1 .91-2.2 1 1 0 0 0 -.06-1.05l-2.2-3.07 3.05-3.05 3.07 2.2a1 1 0 0 0 1.05.06 12.89 12.89 0 0 1 2.2-.91 1.012 1.012 0 0 0 .7-.79l.62-3.72h4.3l.62 3.72a1.012 1.012 0 0 0 .7.79 12.89 12.89 0 0 1 2.2.91 1 1 0 0 0 1.05-.06l3.07-2.2 3.05 3.05-2.2 3.07a1 1 0 0 0 -.06 1.05 13.233 13.233 0 0 1 .91 2.2 1 1 0 0 0 .79.7l3.72.62zm.63-6.23-3.42-.57a13.338 13.338 0 0 0 -.59-1.4l2.34-3.27a1 1 0 0 0 -.11-1.29l-4.24-4.24a1 1 0 0 0 -1.29-.11l-3.27 2.34a13.338 13.338 0 0 0 -1.4-.59l-.57-3.42 8.2-7.49a15.053 15.053 0 0 0 11.84 11.84zm1.37 4.58v-3.11l8.58-9.41c.14 0 .28.02.42.02a14.848 14.848 0 0 0 3.22-.36zm10-14.55v-2a11.216 11.216 0 0 0 3.61-.97l1 1.73a13.022 13.022 0 0 1 -4.61 1.24zm6.34-2.23-1-1.74a11.406 11.406 0 0 0 2.64-2.64l1.74 1a13.244 13.244 0 0 1 -3.38 3.38zm4.37-5.11-1.73-1.01a11.089 11.089 0 0 0 .97-3.6h2a13.022 13.022 0 0 1 -1.24 4.61z"/><path d="m52.586 38h2.828v2h-2.828z" transform="matrix(.707 -.707 .707 .707 -11.761 49.607)"/><path d="m36.515 47h16.971v2h-16.971z" transform="matrix(.707 -.707 .707 .707 -20.761 45.879)"/><path d="m55.586 41h2.828v2h-2.828z" transform="matrix(.707 -.707 .707 .707 -13.004 52.607)"/><path d="m39.515 50h16.971v2h-16.971z" transform="matrix(.707 -.707 .707 .707 -22.004 48.879)"/><path d="m58.586 44h2.828v2h-2.828z" transform="matrix(.707 -.707 .707 .707 -14.246 55.607)"/><path d="m42.515 53h16.971v2h-16.971z" transform="matrix(.707 -.707 .707 .707 -23.246 51.879)"/><path d="m8.586 24h2.828v2h-2.828z" transform="matrix(.707 -.707 .707 .707 -14.749 14.393)"/><path d="m10.515 15h16.971v2h-16.971z" transform="matrix(.707 -.707 .707 .707 -5.749 18.121)"/><path d="m5.586 21h2.828v2h-2.828z" transform="matrix(.707 -.707 .707 .707 -13.506 11.393)"/><path d="m7.515 12h16.971v2h-16.971z" transform="matrix(.707 -.707 .707 .707 -4.506 15.121)"/><path d="m2.586 18h2.828v2h-2.828z" transform="matrix(.707 -.707 .707 .707 -12.263 8.393)"/><path d="m4.515 9h16.971v2h-16.971z" transform="matrix(.707 -.707 .707 .707 -3.263 12.121)"/></g></svg>